Simulation
nRows=32
nColumns=15
endheader
time  TH_x TH_y TH_z SC_y  SC_z  SC_x  AC_y  AC_z  AC_x  GH_y  GH_z  GH_yy  EL_x  PS_y
0.75  0.000000  0.000000  0.000000  -29.30339124787568  1.023575093341555  21.79773249135206  53.67128894764957  1.7120190130066821  -10.934116782829282  20.57497416981903  33.21572692521697  -17.415600611086564  19.93717049905977  0.000000
0.765  0.000000  0.000000  0.000000  -29.45955389435857  1.1258291967503118  22.028242201403575  53.804342813141545  2.0680409071234487  -10.850146594447258  20.653470749962036  33.72027710739476  -17.751445023351806  19.731778140588947  0.000000
0.78  0.000000  0.000000  0.000000  -29.622786055317903  1.2312103802896803  22.26205602862309  53.93230695582551  2.421904259839898  -10.76073528957436  20.739473664865738  34.210220986113576  -18.086726436278262  19.52537064442954  0.000000
0.7949999999999999  0.000000  0.000000  0.000000  -29.792700052147733  1.3395269709802085  22.499196349375698  54.05433727305613  2.773274900010155  -10.666014612062742  20.832229845376112  34.68549109943437  -18.421290680664544  19.318328795403684  0.000000
0.8099999999999999  0.000000  0.000000  0.000000  -29.968659699659753  1.4507059008789305  22.73934966130412  54.16984330737111  3.121646006288538  -10.566389422838203  20.93102693957829  35.14641600172163  -18.755383359850153  19.110984641922393  0.000000
0.825  0.000000  0.000000  0.000000  -30.15024520659379  1.564660362017805  22.9824309240576  54.278159404449454  3.4666364277130306  -10.462055715753001  21.035223205933367  35.592901331926186  -19.08866363029654  18.90382819574831  0.000000
0.84  0.000000  0.000000  0.000000  -30.336844401658652  1.6813199269199592  23.228079906771345  54.378560506754525  3.807706585783649  -10.35338997299924  21.14426033303202  36.02526499005134  -19.42101839446618  18.697411618614154  0.000000
0.855  0.000000  0.000000  0.000000  -30.527837076563323  1.8005030663706525  23.47608377078572  54.4705015139032  4.144561396218546  -10.240738682829246  21.25744153607589  36.44345475625359  -19.751900226748386  18.492303592418022  0.000000
0.87  0.000000  0.000000  0.000000  -30.72244539833098  1.922012988550702  23.726010328817665  54.55338879804396  4.476777952151076  -10.124535975682893  21.374071764727574  36.8477460021445  -20.08093417593399  18.28912630301409  0.000000
0.885  0.000000  0.000000  0.000000  -30.919944589482434  2.0455561440740553  23.977591761700346  54.626895730138614  4.804081857291022  -10.005155842082363  21.493291712705915  37.23807504622246  -20.407466652502826  18.088500723803225  0.000000
0.8999999999999999  0.000000  0.000000  0.000000  -31.11947733698845  2.1708253319417623  24.230312076539224  54.690632226388836  5.126110081986832  -9.883088510269705  21.614324446741072  37.6147175114023  -20.730911063357105  17.89107586270181  0.000000
0.9149999999999999  0.000000  0.000000  0.000000  -31.32024829204398  2.2974336951307364  24.483851717909175  54.74443399983532  5.442603692930931  -9.75874165468784  21.736239747221926  37.977580117274975  -21.05041983967483  17.69752494250679  0.000000
0.9299999999999999  0.000000  0.000000  0.000000  -31.521344963767884  2.424994254946608  24.73759787614006  54.78811980356066  5.753210747227877  -9.632651343297201  21.85820401623372  38.326938544182354  -21.36525039626767  17.508508690541095  0.000000
0.945  0.000000  0.000000  0.000000  -31.721939486628976  2.5530487989893453  24.991180096051217  54.82170253694671  6.057641065447865  -9.505238092974555  21.979250734550426  38.66265905083262  -21.6743980981112  17.324724703657242  0.000000
0.96  0.000000  0.000000  0.000000  -31.921102574311657  2.6811559850506623  25.24389231066285  54.84522337227166  6.355498139568224  -9.377067162821247  22.098524396817893  38.985014068006265  -21.97700637072497  17.14682988970204  0.000000
0.975  0.000000  0.000000  0.000000  -32.11802198633987  2.80881350819999  25.49531905151071  54.85890617827065  6.646409201655637  -9.248552930957318  22.215063579894924  39.29382377214218  -22.271959701206388  16.975527446872327  0.000000
0.99  0.000000  0.000000  0.000000  -32.311805516635786  2.9355531649278825  25.744680409641507  54.863028191471926  6.929872865994014  -9.120268768158844  22.3280445428699  39.5893604109192  -22.558323043327658  16.811466807279736  0.000000
1.005  0.000000  0.000000  0.000000  -32.50171518867424  3.060864103765584  25.991527338148988  54.858067097813965  7.205389434043675  -8.992606025191282  22.43656973207202  39.87140306382567  -22.834925665371355  16.655344979080184  0.000000
1.02  0.000000  0.000000  0.000000  -32.6869034960523  3.1843063743945796  26.23501461157988  54.844513667954324  7.472318939351724  -8.866113775620748  22.539901978740225  40.14022792544634  -23.10080136435205  16.507773109021723  0.000000
1.035  0.000000  0.000000  0.000000  -32.86666882282876  3.3054291546393917  26.47469626349047  54.82305092296259  7.730019831511685  -8.741158857465415  22.63724816689934  40.39555743198403  -23.354784644023017  16.369387209202166  0.000000
1.05  0.000000  0.000000  0.000000  -33.040306982899885  3.4239662258724763  26.70978741652022  54.79428449736975  7.977539223210008  -8.618251423952753  22.728062185429813  40.637707463856  -23.59591759371179  16.240802228655983  0.000000
1.065  0.000000  0.000000  0.000000  -33.20735962578107  3.539789033553088  26.939700433955856  54.75907148907351  8.214030778551056  -8.497546944880442  22.811762972265676  40.86643775083549  -23.823116335579527  16.122596996428495  0.000000
1.08  0.000000  0.000000  0.000000  -33.36695845467537  3.652421290509484  27.163294476067655  54.718169843177805  8.438830506512  -8.37956166567626  22.88769567146675  41.082345122649826  -24.03570249276757  16.015058629809715  0.000000
1.095  0.000000  0.000000  0.000000  -33.518619717253266  3.761480086175406  27.38013686991829  54.672322039737075  8.651389177560183  -8.264652780298483  22.95517525559745  41.28530471077623  -24.232716331542626  15.918611469350692  0.000000
1.1099999999999999  0.000000  0.000000  0.000000  -33.662225227510554  3.8670831960423233  27.589446672807746  54.62242967143939  8.850911980671592  -8.153463296420806  23.01358433371335  41.47588513705186  -24.413704338124447  15.833807177606579  0.000000
1.125  0.000000  0.000000  0.000000  -33.79777239133551  3.9686913705768103  27.79088843938501  54.5695133213024  9.03746618437513  -8.046314174583244  23.062112758094617  41.65389518322028  -24.577737922506245  15.760978348097778  0.000000
1.14  0.000000  0.000000  0.000000  -33.92481201368616  4.06580422909564  27.98347323509155  54.51451709064706  9.21094132845093  -7.943952573253909  23.100033082095393  41.820332290988574  -24.724746766341163  15.700155877058052  0.000000
1.155  0.000000  0.000000  0.000000  -34.04321299268577  4.1582217972973465  28.166838414676786  54.458265513603656  9.371337469303034  -7.846527180520447  23.126844953405175  41.975279667305166  -24.854268346859104  15.65142460551235  0.000000
1.17  0.000000  0.000000  0.000000  -34.15265942120977  4.24599942555246  28.34016621961773  54.40142177808245  9.518277604396067  -7.754595115379391  23.142348377844918  42.11994890048878  -24.966554123355195  15.614797841424316  0.000000
1.185  0.000000  0.000000  0.000000  -34.25313573248456  4.329190027203245  28.503262804656433  54.34461778736938  9.651849384284588  -7.668105104450239  23.146469154904967  42.25451254993348  -25.061523451333564  15.590328789254519  0.000000
1.2  0.000000  0.000000  0.000000  -34.34434497916139  4.408059246412712  28.655419667885138  54.28831957257343  9.771829968713533  -7.587536786437798  23.139459941698167  42.38036962186568  -25.139901420180045  15.577899545378676  0.000000
1.2149999999999999  0.000000  0.000000  0.000000  -34.4262633572273  4.482853447026816  28.796583624674597  54.2328876736016  9.878581510618783  -7.512659312712506  23.121723352680785  42.49766661826823  -25.202099075605833  15.577438024134494  0.000000
